<svg id="visual" viewBox="0 0 1920 1080" width="1920" height="1080" xmlns="http://www.w3.org/2000/svg" xmlns:xlink="http://www.w3.org/1999/xlink" version="1.1"><rect x="0" y="0" width="1920" height="1080" fill="#1f2937"></rect><path d="M0 752L45.7 758C91.3 764 182.7 776 274.2 755.7C365.7 735.3 457.3 682.7 548.8 667.8C640.3 653 731.7 676 823 689C914.3 702 1005.7 705 1097 720.8C1188.3 736.7 1279.7 765.3 1371.2 778.2C1462.7 791 1554.3 788 1645.8 779C1737.3 770 1828.7 755 1874.3 747.5L1920 740L1920 1081L1874.3 1081C1828.7 1081 1737.3 1081 1645.8 1081C1554.3 1081 1462.7 1081 1371.2 1081C1279.7 1081 1188.3 1081 1097 1081C1005.7 1081 914.3 1081 823 1081C731.7 1081 640.3 1081 548.8 1081C457.3 1081 365.7 1081 274.2 1081C182.7 1081 91.3 1081 45.7 1081L0 1081Z" fill="#a8dc61"></path><path d="M0 725L45.7 742.5C91.3 760 182.7 795 274.2 814.2C365.7 833.3 457.3 836.7 548.8 835.8C640.3 835 731.7 830 823 814.2C914.3 798.3 1005.7 771.7 1097 760.3C1188.3 749 1279.7 753 1371.2 754.3C1462.7 755.7 1554.3 754.3 1645.8 750.8C1737.3 747.3 1828.7 741.7 1874.3 738.8L1920 736L1920 1081L1874.3 1081C1828.7 1081 1737.3 1081 1645.8 1081C1554.3 1081 1462.7 1081 1371.2 1081C1279.7 1081 1188.3 1081 1097 1081C1005.7 1081 914.3 1081 823 1081C731.7 1081 640.3 1081 548.8 1081C457.3 1081 365.7 1081 274.2 1081C182.7 1081 91.3 1081 45.7 1081L0 1081Z" fill="#96d442"></path><path d="M0 873L45.7 861.2C91.3 849.3 182.7 825.7 274.2 831.8C365.7 838 457.3 874 548.8 886.8C640.3 899.7 731.7 889.3 823 878.7C914.3 868 1005.7 857 1097 844C1188.3 831 1279.7 816 1371.2 818C1462.7 820 1554.3 839 1645.8 854C1737.3 869 1828.7 880 1874.3 885.5L1920 891L1920 1081L1874.3 1081C1828.7 1081 1737.3 1081 1645.8 1081C1554.3 1081 1462.7 1081 1371.2 1081C1279.7 1081 1188.3 1081 1097 1081C1005.7 1081 914.3 1081 823 1081C731.7 1081 640.3 1081 548.8 1081C457.3 1081 365.7 1081 274.2 1081C182.7 1081 91.3 1081 45.7 1081L0 1081Z" fill="#84cc16"></path><path d="M0 977L45.7 968.7C91.3 960.3 182.7 943.7 274.2 927.7C365.7 911.7 457.3 896.3 548.8 889C640.3 881.7 731.7 882.3 823 887.2C914.3 892 1005.7 901 1097 899.7C1188.3 898.3 1279.7 886.7 1371.2 879.3C1462.7 872 1554.3 869 1645.8 881.5C1737.3 894 1828.7 922 1874.3 936L1920 950L1920 1081L1874.3 1081C1828.7 1081 1737.3 1081 1645.8 1081C1554.3 1081 1462.7 1081 1371.2 1081C1279.7 1081 1188.3 1081 1097 1081C1005.7 1081 914.3 1081 823 1081C731.7 1081 640.3 1081 548.8 1081C457.3 1081 365.7 1081 274.2 1081C182.7 1081 91.3 1081 45.7 1081L0 1081Z" fill="#72b015"></path><path d="M0 1029L45.7 1019.7C91.3 1010.3 182.7 991.7 274.2 979.8C365.7 968 457.3 963 548.8 961.8C640.3 960.7 731.7 963.3 823 975.5C914.3 987.7 1005.7 1009.3 1097 1011C1188.3 1012.7 1279.7 994.3 1371.2 994.7C1462.7 995 1554.3 1014 1645.8 1014.8C1737.3 1015.7 1828.7 998.3 1874.3 989.7L1920 981L1920 1081L1874.3 1081C1828.7 1081 1737.3 1081 1645.8 1081C1554.3 1081 1462.7 1081 1371.2 1081C1279.7 1081 1188.3 1081 1097 1081C1005.7 1081 914.3 1081 823 1081C731.7 1081 640.3 1081 548.8 1081C457.3 1081 365.7 1081 274.2 1081C182.7 1081 91.3 1081 45.7 1081L0 1081Z" fill="#619513"></path></svg>