<svg id="visual" viewBox="0 0 1920 1080" width="1920" height="1080" xmlns="http://www.w3.org/2000/svg" xmlns:xlink="http://www.w3.org/1999/xlink" version="1.1"><rect x="0" y="0" width="1920" height="1080" fill="#FFFFFF"></rect><path d="M460 0L525 0L525 64L266 64L266 127L275 127L275 191L119 191L119 254L524 254L524 318L446 318L446 381L230 381L230 445L227 445L227 508L275 508L275 572L316 572L316 635L471 635L471 699L109 699L109 762L348 762L348 826L363 826L363 889L560 889L560 953L568 953L568 1016L174 1016L174 1080L0 1080L0 1016L0 1016L0 953L0 953L0 889L0 889L0 826L0 826L0 762L0 762L0 699L0 699L0 635L0 635L0 572L0 572L0 508L0 508L0 445L0 445L0 381L0 381L0 318L0 318L0 254L0 254L0 191L0 191L0 127L0 127L0 64L0 64L0 0L0 0Z" fill="#a8dc61"></path><path d="M457 0L424 0L424 64L509 64L509 127L413 127L413 191L244 191L244 254L529 254L529 318L364 318L364 381L80 381L80 445L360 445L360 508L261 508L261 572L169 572L169 635L480 635L480 699L331 699L331 762L323 762L323 826L17 826L17 889L27 889L27 953L131 953L131 1016L467 1016L467 1080L0 1080L0 1016L0 1016L0 953L0 953L0 889L0 889L0 826L0 826L0 762L0 762L0 699L0 699L0 635L0 635L0 572L0 572L0 508L0 508L0 445L0 445L0 381L0 381L0 318L0 318L0 254L0 254L0 191L0 191L0 127L0 127L0 64L0 64L0 0L0 0Z" fill="#a2d956"></path><path d="M484 0L379 0L379 64L206 64L206 127L99 127L99 191L467 191L467 254L193 254L193 318L299 318L299 381L332 381L332 445L291 445L291 508L279 508L279 572L315 572L315 635L299 635L299 699L373 699L373 762L231 762L231 826L97 826L97 889L132 889L132 953L238 953L238 1016L257 1016L257 1080L0 1080L0 1016L0 1016L0 953L0 953L0 889L0 889L0 826L0 826L0 762L0 762L0 699L0 699L0 635L0 635L0 572L0 572L0 508L0 508L0 445L0 445L0 381L0 381L0 318L0 318L0 254L0 254L0 191L0 191L0 127L0 127L0 64L0 64L0 0L0 0Z" fill="#9bd64b"></path><path d="M350 0L106 0L106 64L94 64L94 127L414 127L414 191L104 191L104 254L44 254L44 318L274 318L274 381L324 381L324 445L346 445L346 508L337 508L337 572L279 572L279 635L322 635L322 699L109 699L109 762L274 762L274 826L407 826L407 889L175 889L175 953L193 953L193 1016L372 1016L372 1080L0 1080L0 1016L0 1016L0 953L0 953L0 889L0 889L0 826L0 826L0 762L0 762L0 699L0 699L0 635L0 635L0 572L0 572L0 508L0 508L0 445L0 445L0 381L0 381L0 318L0 318L0 254L0 254L0 191L0 191L0 127L0 127L0 64L0 64L0 0L0 0Z" fill="#95d33f"></path><path d="M238 0L62 0L62 64L390 64L390 127L27 127L27 191L311 191L311 254L209 254L209 318L249 318L249 381L95 381L95 445L203 445L203 508L55 508L55 572L98 572L98 635L268 635L268 699L44 699L44 762L296 762L296 826L3 826L3 889L399 889L399 953L79 953L79 1016L227 1016L227 1080L0 1080L0 1016L0 1016L0 953L0 953L0 889L0 889L0 826L0 826L0 762L0 762L0 699L0 699L0 635L0 635L0 572L0 572L0 508L0 508L0 445L0 445L0 381L0 381L0 318L0 318L0 254L0 254L0 191L0 191L0 127L0 127L0 64L0 64L0 0L0 0Z" fill="#8ed032"></path><path d="M67 0L180 0L180 64L308 64L308 127L124 127L124 191L307 191L307 254L162 254L162 318L70 318L70 381L117 381L117 445L99 445L99 508L236 508L236 572L32 572L32 635L234 635L234 699L135 699L135 762L283 762L283 826L82 826L82 889L258 889L258 953L17 953L17 1016L353 1016L353 1080L0 1080L0 1016L0 1016L0 953L0 953L0 889L0 889L0 826L0 826L0 762L0 762L0 699L0 699L0 635L0 635L0 572L0 572L0 508L0 508L0 445L0 445L0 381L0 381L0 318L0 318L0 254L0 254L0 191L0 191L0 127L0 127L0 64L0 64L0 0L0 0Z" fill="#87cd21"></path><path d="M295 0L116 0L116 64L82 64L82 127L90 127L90 191L17 191L17 254L49 254L49 318L130 318L130 381L95 381L95 445L49 445L49 508L205 508L205 572L168 572L168 635L310 635L310 699L183 699L183 762L259 762L259 826L184 826L184 889L222 889L222 953L203 953L203 1016L288 1016L288 1080L0 1080L0 1016L0 1016L0 953L0 953L0 889L0 889L0 826L0 826L0 762L0 762L0 699L0 699L0 635L0 635L0 572L0 572L0 508L0 508L0 445L0 445L0 381L0 381L0 318L0 318L0 254L0 254L0 191L0 191L0 127L0 127L0 64L0 64L0 0L0 0Z" fill="#81c716"></path><path d="M124 0L102 0L102 64L51 64L51 127L2 127L2 191L170 191L170 254L118 254L118 318L39 318L39 381L219 381L219 445L181 445L181 508L161 508L161 572L250 572L250 635L16 635L16 699L32 699L32 762L31 762L31 826L250 826L250 889L2 889L2 953L92 953L92 1016L179 1016L179 1080L0 1080L0 1016L0 1016L0 953L0 953L0 889L0 889L0 826L0 826L0 762L0 762L0 699L0 699L0 635L0 635L0 572L0 572L0 508L0 508L0 445L0 445L0 381L0 381L0 318L0 318L0 254L0 254L0 191L0 191L0 127L0 127L0 64L0 64L0 0L0 0Z" fill="#7abd15"></path><path d="M121 0L118 0L118 64L205 64L205 127L221 127L221 191L208 191L208 254L29 254L29 318L34 318L34 381L95 381L95 445L78 445L78 508L21 508L21 572L42 572L42 635L165 635L165 699L198 699L198 762L207 762L207 826L74 826L74 889L6 889L6 953L120 953L120 1016L79 1016L79 1080L0 1080L0 1016L0 1016L0 953L0 953L0 889L0 889L0 826L0 826L0 762L0 762L0 699L0 699L0 635L0 635L0 572L0 572L0 508L0 508L0 445L0 445L0 381L0 381L0 318L0 318L0 254L0 254L0 191L0 191L0 127L0 127L0 64L0 64L0 0L0 0Z" fill="#74b315"></path><path d="M28 0L77 0L77 64L95 64L95 127L51 127L51 191L11 191L11 254L127 254L127 318L75 318L75 381L151 381L151 445L99 445L99 508L137 508L137 572L113 572L113 635L177 635L177 699L100 699L100 762L167 762L167 826L99 826L99 889L159 889L159 953L158 953L158 1016L117 1016L117 1080L0 1080L0 1016L0 1016L0 953L0 953L0 889L0 889L0 826L0 826L0 762L0 762L0 699L0 699L0 635L0 635L0 572L0 572L0 508L0 508L0 445L0 445L0 381L0 381L0 318L0 318L0 254L0 254L0 191L0 191L0 127L0 127L0 64L0 64L0 0L0 0Z" fill="#6ea914"></path><path d="M84 0L66 0L66 64L69 64L69 127L18 127L18 191L117 191L117 254L60 254L60 318L90 318L90 381L31 381L31 445L76 445L76 508L52 508L52 572L121 572L121 635L83 635L83 699L31 699L31 762L79 762L79 826L48 826L48 889L47 889L47 953L100 953L100 1016L117 1016L117 1080L0 1080L0 1016L0 1016L0 953L0 953L0 889L0 889L0 826L0 826L0 762L0 762L0 699L0 699L0 635L0 635L0 572L0 572L0 508L0 508L0 445L0 445L0 381L0 381L0 318L0 318L0 254L0 254L0 191L0 191L0 127L0 127L0 64L0 64L0 0L0 0Z" fill="#679f14"></path><path d="M82 0L39 0L39 64L67 64L67 127L5 127L5 191L12 191L12 254L45 254L45 318L88 318L88 381L44 381L44 445L44 445L44 508L29 508L29 572L53 572L53 635L8 635L8 699L28 699L28 762L0 762L0 826L64 826L64 889L24 889L24 953L66 953L66 1016L41 1016L41 1080L0 1080L0 1016L0 1016L0 953L0 953L0 889L0 889L0 826L0 826L0 762L0 762L0 699L0 699L0 635L0 635L0 572L0 572L0 508L0 508L0 445L0 445L0 381L0 381L0 318L0 318L0 254L0 254L0 191L0 191L0 127L0 127L0 64L0 64L0 0L0 0Z" fill="#619513"></path></svg>